<?xml version="1.0" encoding="UTF-8" standalone="no"?>
<!-- Created with Inkscape (http://www.inkscape.org/) -->

<svg
   width="30mm"
   height="183.5mm"
   viewBox="0 0 30 183.5"
   version="1.1"
   id="svg1"
   xml:space="preserve"
   xmlns="http://www.w3.org/2000/svg"
   xmlns:svg="http://www.w3.org/2000/svg"><defs
     id="defs1" /><g
     id="layer1"><path
       style="fill:#1d1b23;stroke-width:1"
       d="m 1.1538489,0 c 1.1490849,0 1.1538388,0.37680527 1.1538388,91.563094 0,91.186296 -0.00408,91.563106 -1.1538388,91.563106 C 0.00475389,183.1262 0,182.74939 0,91.563094 0,0.37680527 0.00408059,0 1.1538489,0 Z m 2.8846122,0 c 0.3173069,0 0.5769346,0.38152629 0.5769346,0.84781721 0,0.46629099 0.1482786,0.84779589 0.3296712,0.84779589 0.1811987,0 0.7190821,-0.3815049 1.1950425,-0.84779589 C 6.6160698,0.38152629 7.6342798,0 8.4027881,0 H 9.800075 L 8.5058027,1.5046149 C 7.7939534,2.3321383 6.6274036,3.5225387 5.9134732,4.1499635 4.1117893,5.7332442 4.2910498,7.3844028 6.4903875,9.4641484 L 8.3653997,11.237177 10.870506,8.9407994 c 2.273023,-2.0836334 2.421445,-2.3783229 1.602184,-3.1809381 -0.81925,-0.802615 -1.02631,-0.743848 -2.235012,0.6342181 -0.73264,0.8353204 -1.6205873,1.518778 -1.9731506,1.518778 -1.5141653,0 -1.0779703,-1.6959122 1.0124258,-3.9362896 l 2.2505188,-2.4120323 1.736262,1.8209443 1.736292,1.8209121 1.708616,-1.7919452 1.708636,-1.7919345 2.568193,2.5160227 c 1.886172,1.8478283 2.397654,2.6830847 1.925989,3.1451672 -0.928937,0.9100663 -1.341087,0.7974241 -2.988872,-0.8168849 -1.337587,-1.3104338 -1.560469,-1.3633049 -2.376527,-0.5638301 -0.816027,0.7994749 -0.728223,1.0242037 0.936435,2.3964807 1.010314,0.8328424 2.20551,1.8753532 2.656007,2.3166932 0.707463,0.693114 1.051263,0.544369 2.523378,-1.0917289 C 25.969283,6.9600029 25.824238,6.0586967 22.783207,2.9125254 20.080824,0.11665973 21.506511,-1.0541302 24.407099,1.5175406 25.388818,2.3879376 25.384626,1.80582 25.384626,0.93542299 25.384626,0.42093928 25.753042,0 26.203315,0 c 0.703606,0 0.818414,12.871161 0.816731,91.563094 -0.002,78.587046 -0.117746,91.563106 -0.81869,91.563106 -0.449181,0 -0.81673,-0.42091 -0.81673,-0.9354 0,-0.8704 -0.07325,-0.8704 -1.055028,0 -2.877583,2.55129 -4.226199,1.04618 -1.531416,-1.70914 3.037941,-3.10617 3.175753,-4.31428 0.785923,-6.88952 l -1.766703,-1.90378 -2.503475,2.40708 c -2.185015,2.10085 -2.397246,2.51114 -1.668371,3.22524 0.728876,0.71407 1.042735,0.6004 2.467147,-0.89345 1.478858,-1.55097 1.716532,-1.62881 2.532396,-0.82955 0.815833,0.79926 0.659658,1.11781 -1.66375,3.39402 l -2.564071,2.51201 -1.708636,-1.79195 -1.708616,-1.79196 -1.724183,1.80823 -1.724173,1.80826 -2.3142884,-2.35981 c -2.6173434,-2.66878 -2.6021024,-2.63154 -1.5133594,-3.69817 0.683326,-0.66944 1.019322,-0.52645 2.2877848,0.97357 1.2719,1.50411 1.618843,1.65092 2.400113,1.01571 0.810906,-0.65932 0.638154,-1.01725 -1.540863,-3.19242 l -2.4541806,-2.44982 -1.9007403,1.80486 c -2.5430053,2.41472 -2.4015108,3.58962 0.8179549,6.79186 2.862944,2.8476 1.877889,4.0986 -1.4364913,1.82427 -1.1605105,-0.79633 -1.282204,-0.79633 -1.282204,0 0,0.48393 -0.2596277,0.87986 -0.5769346,0.87986 -0.3822496,0 -0.5769245,-30.89786 -0.5769245,-91.563106 C 3.4615366,30.89783 3.6562625,0 4.0384611,0 Z m 0.9066058,14.695309 c 1.3476975,0 1.8550172,-1.629454 0.7988679,-2.56586 -1.0974653,-0.972998 -1.1285391,-0.951423 -1.1285391,0.782641 0,0.980775 0.1482786,1.783219 0.3296712,1.783219 z m 2.2664736,8.789994 c 1.4278812,1.359567 2.5961653,2.580152 2.5961653,2.712426 0,0.132231 -1.1682841,1.401457 -2.5961653,2.82041 -3.07387,3.054646 -3.2067953,4.204245 -0.7850041,6.789438 l 1.8111713,1.933351 2.5439643,-2.492289 c 2.308565,-2.261687 2.460394,-2.574149 1.640806,-3.377084 -0.819566,-0.802936 -1.054517,-0.726033 -2.5391487,0.830983 -1.2310027,1.291038 -1.799919,1.555201 -2.298139,1.067099 -1.0165676,-0.99592 -0.8434178,-1.381868 1.7085545,-3.80817 l 2.3706612,-2.253911 1.6678,1.749104 1.66782,1.749125 1.724163,-1.808234 1.724163,-1.808234 2.314298,2.359781 c 2.517818,2.567313 2.640888,2.851919 1.652181,3.820539 -0.49822,0.488102 -1.067116,0.223939 -2.298139,-1.067099 -1.484632,-1.557016 -1.719582,-1.633919 -2.539139,-0.830983 -0.819587,0.802935 -0.667758,1.115397 1.640796,3.377084 l 2.543975,2.492289 1.811161,-1.933351 c 2.459822,-2.625803 2.301801,-3.911905 -0.868054,-7.064751 l -2.679206,-2.664852 2.679206,-2.514912 c 3.203632,-3.007179 3.409141,-4.560564 0.938465,-7.093399 L 21.903135,14.68512 19.28876,17.246387 c -2.331212,2.28386 -2.520042,2.653659 -1.743484,3.414447 0.776547,0.760788 1.058434,0.660899 2.602663,-0.922158 1.534466,-1.573037 1.829789,-1.679356 2.591697,-0.932944 0.761898,0.746433 0.560612,1.117235 -1.766438,3.254018 -1.444468,1.326369 -2.795226,2.183116 -3.001674,1.903892 -1.002398,-1.355742 -3.079256,-2.672606 -3.43944,-2.180809 -1.969009,2.688607 -2.820149,2.732891 -5.3507391,0.278348 -2.2155683,-2.14898 -2.3480141,-2.433331 -1.5139919,-3.250408 0.8340223,-0.817077 1.0474067,-0.740067 2.439215,0.880438 1.325204,1.542895 1.63387,1.669423 2.353279,0.964624 0.719418,-0.704798 0.505769,-1.145326 -1.62883,-3.358542 l -2.4568542,-2.547339 -1.8317273,1.8096 C 3.9714067,19.099482 4.1098,20.531999 7.2115405,23.485303 Z m 7.0768305,1.597263 c 1.531915,-0.93726 2.873206,0.575536 1.608692,1.814364 -0.797369,0.781168 -0.993196,0.784629 -1.762439,0.03097 -1.083775,-1.061757 -1.081439,-1.089656 0.153726,-1.845382 z m -9.3433041,2.612451 c 1.3476975,0 1.8550172,-1.629455 0.7988679,-2.565861 -1.0974653,-0.972998 -1.1285391,-0.951445 -1.1285391,0.782642 0,0.980774 0.1482786,1.783219 0.3296712,1.783219 z m -0.017445,12.999685 c 1.0514363,0 1.7827806,-1.418952 1.0841014,-2.103436 -1.0762768,-1.054409 -1.3968992,-0.895946 -1.3968992,0.690443 0,0.777152 0.140862,1.412993 0.3127978,1.412993 z m 2.2833572,8.849915 c 1.4278709,1.398894 2.5961652,2.660002 2.5961652,2.802488 0,0.142485 -1.1682943,1.371422 -2.5961652,2.730988 -3.110116,2.961273 -3.2375223,4.242911 -0.6717269,6.756584 l 1.9244384,1.885351 2.4118144,-2.500622 c 2.095456,-2.172648 2.303189,-2.607046 1.58378,-3.311844 -0.719408,-0.704798 -1.028085,-0.578271 -2.353278,0.964625 -1.416782,1.649578 -1.59288,1.709605 -2.4762265,0.844186 -0.8833566,-0.865399 -0.7719768,-1.110336 1.566346,-3.444525 l 2.5173385,-2.512861 1.64299,1.723085 1.643,1.723105 1.646407,-1.726694 1.646427,-1.726716 2.575242,2.452171 c 2.244908,2.137615 2.480338,2.579319 1.835329,3.443499 -0.684571,0.91718 -0.870197,0.854718 -2.481327,-0.834979 -1.580292,-1.65731 -1.824984,-1.744446 -2.644551,-0.94151 -0.819587,0.802935 -0.660587,1.122447 1.718317,3.453026 l 2.621485,2.568232 1.716726,-1.848972 c 2.45211,-2.640991 2.262669,-4.230947 -0.84559,-7.096517 -1.427881,-1.316393 -2.596145,-2.512967 -2.596145,-2.659041 0,-0.146117 1.168264,-1.320603 2.596145,-2.610038 3.122816,-2.820047 3.294966,-4.304283 0.80962,-6.980008 l -1.786555,-1.923397 -2.568581,2.516407 c -2.330916,2.283562 -2.485009,2.598268 -1.665422,3.401203 0.819567,0.802935 1.051456,0.729258 2.506137,-0.796356 1.41518,-1.484193 1.727866,-1.591687 2.66882,-0.917629 0.998695,0.715415 0.892477,0.923909 -1.685877,3.309922 l -2.751676,2.546421 -1.657466,-1.738294 -1.657465,-1.738295 -1.623791,1.702962 -1.6238,1.702962 -2.4146816,-2.250877 C 6.6183141,45.9782 6.6247512,45.992535 7.7234612,44.916122 c 0.6833259,-0.669444 1.0175877,-0.528497 2.2759814,0.959626 1.3535834,1.600702 1.5512074,1.669679 2.4003174,0.837798 0.84913,-0.831859 0.715726,-1.111809 -1.620179,-3.400283 L 8.2341066,40.819499 6.4794413,42.594024 c -2.4904778,2.51865 -2.3408323,3.940658 0.7315378,6.950593 z m 6.9904849,1.999253 c 0.675512,-0.609758 0.981546,-0.576391 1.766479,0.192686 0.803387,0.787063 0.824106,1.007819 0.134761,1.43538 -1.653732,1.025572 -3.289325,-0.374968 -1.901179,-1.627981 z m -9.2738421,2.15054 c 1.0514363,0 1.7827806,-1.418975 1.0841014,-2.103437 -1.0762768,-1.05443 -1.3968992,-0.895946 -1.3968992,0.690422 0,0.777151 0.140862,1.413015 0.3127978,1.413015 z m 0.05621,13.564904 c 1.0230455,0 1.7824031,-1.9294 1.0440606,-2.65274 -1.1282126,-1.105294 -1.41314,-0.912309 -1.41314,0.957127 0,0.932582 0.1661617,1.695613 0.3690794,1.695613 z m 2.3297943,8.666307 2.6851935,2.731673 -2.6920387,2.563532 C 4.100027,84.27451 3.9388028,85.616859 6.4897448,88.023337 l 1.8750122,1.768821 2.450294,-2.437881 c 2.992972,-2.977826 2.175436,-5.239962 -0.8846316,-2.447706 -1.4614543,1.333569 -3.0079787,1.546933 -3.0079787,0.415022 0,-0.272409 1.0384702,-1.533197 2.3077081,-2.801783 l 2.3077182,-2.306504 1.580638,1.435872 c 1.933712,1.756623 1.828137,1.756517 3.757523,0.0043 l 1.576414,-1.432027 2.570091,2.517861 c 3.171671,3.10726 2.375721,5.334083 -0.83084,2.324404 -3.196145,-2.999873 -4.005857,-0.786081 -0.84507,2.310478 l 2.555869,2.503953 1.740761,-1.784522 C 25.99852,85.679115 25.836796,84.408457 22.770424,81.236 l -2.607111,-2.697301 2.610335,-2.594016 c 3.093916,-3.074555 3.274696,-4.511303 0.889641,-7.069579 l -1.720715,-1.845682 -1.854099,1.669508 c -1.019761,0.918206 -2.21109,1.98742 -2.647438,2.375995 -0.670676,0.597283 -0.651681,0.845254 0.122764,1.604056 0.83692,0.819918 1.057303,0.74953 2.548178,-0.814066 1.478858,-1.550949 1.716532,-1.628814 2.532385,-0.829552 0.815833,0.799261 0.659669,1.117812 -1.663739,3.394046 l -2.564071,2.511963 -1.708637,-1.791934 -1.708615,-1.791956 -1.724194,1.808255 -1.724163,1.808234 -2.3142979,-2.359802 C 6.7188293,72.046853 6.5957586,71.762268 7.584466,70.793627 c 0.49822,-0.48808 1.0769705,-0.213621 2.3379554,1.108861 1.5458816,1.621273 1.7483916,1.686428 2.6119266,0.840426 0.831686,-0.814812 -1.71186,-4.02773 -4.0356659,-5.097712 -0.1227647,-0.05661 -1.0445911,0.533047 -2.0484272,1.310199 -2.6022045,2.014633 -2.3994806,3.651479 0.8632801,6.970694 z m 6.8518458,1.617642 c 1.368417,-1.183159 3.033075,0.641994 1.740496,1.908315 -0.805866,0.789499 -1.002745,0.793985 -1.771978,0.04038 -1.041,-1.019846 -1.040969,-1.021384 0.03142,-1.948689 z m -8.5410992,2.097092 c 0.5552871,-0.41639 1.1054225,-0.81695 1.2225151,-0.890115 0.2706454,-0.168974 -1.4609339,-1.882445 -1.9024643,-1.882445 -0.181413,0 -0.3296711,0.794156 -0.3296711,1.764805 0,1.592391 0.098546,1.690849 1.0096203,1.007755 z M 4.9444242,93.258707 c 1.2117321,0 2.0248107,-1.730497 1.1950425,-2.543409 -1.2443871,-1.219111 -1.5247136,-1.063254 -1.5247136,0.847796 0,0.932602 0.1482785,1.695613 0.3296711,1.695613 z m 2.3522579,8.649003 2.6682795,2.71435 -1.6654839,1.79059 c -0.916032,0.98483 -2.1198172,2.13045 -2.6751043,2.54585 -1.6078761,1.20274 -1.1831884,3.59123 0.9458509,5.31951 l 1.8721762,1.51978 2.4694425,-2.21145 c 2.296456,-2.05651 2.402674,-2.27689 1.516012,-3.14554 -0.886672,-0.86864 -1.0582,-0.81023 -2.4483053,0.83368 -1.1635403,1.37593 -1.6679934,1.62698 -2.2759814,1.13266 C 6.595626,111.5063 6.6611093,111.3422 9.22464,108.59472 l 2.302189,-2.46741 1.736272,1.82093 1.736282,1.82092 1.708616,-1.79193 1.708646,-1.79196 2.564062,2.51199 c 2.323418,2.27621 2.479582,2.59476 1.663749,3.39404 -0.815853,0.79926 -1.053527,0.7214 -2.532385,-0.82955 -1.502016,-1.57528 -1.706198,-1.63894 -2.563337,-0.79924 -0.857108,0.83972 -0.731508,1.0913 1.576721,3.15838 3.000786,2.68724 2.803031,2.66397 4.720869,0.55527 2.163969,-2.37936 1.943107,-3.81781 -1.06376,-6.92866 l -2.594962,-2.68472 2.594962,-2.68469 c 3.048825,-3.154265 3.1873,-4.273829 0.850008,-6.871882 l -1.732977,-1.926344 -2.523316,2.57998 c -1.826107,1.867108 -2.348984,2.75075 -1.892416,3.19805 0.926845,0.907994 1.354838,0.779138 2.926213,-0.8811 1.269504,-1.341281 1.511258,-1.408699 2.295763,-0.640135 0.784494,0.768563 0.604958,1.105529 -1.705086,3.199871 l -2.581935,2.34081 -1.447478,-1.41808 c -1.789819,-1.753464 -1.840868,-1.752652 -3.77261,0.0605 l -1.575344,1.4786 -2.3310184,-2.32981 C 6.1063935,97.484216 6.6748303,95.122983 9.8988662,98.149068 12.996271,101.05628 13.915149,98.751072 10.870415,95.711742 L 8.4162439,93.261921 6.5154934,95.066779 c -2.5307737,2.403104 -2.3926967,3.612174 0.7811887,6.840881 z m 6.8687909,1.63495 c 1.368417,-1.18316 3.033075,0.64199 1.740496,1.90829 -0.805866,0.7895 -1.002745,0.79399 -1.771978,0.0404 -1.041,-1.01985 -1.040969,-1.02138 0.03142,-1.94867 z m -9.2210488,2.71574 c 1.3477077,0 1.8550172,-1.62946 0.7988679,-2.56587 -1.0974653,-0.97298 -1.128539,-0.95142 -1.128539,0.78264 0,0.98078 0.1482785,1.78323 0.3296711,1.78323 z m 0,12.9997 c 1.3477077,0 1.8550172,-1.62945 0.7988679,-2.56586 -1.0974653,-0.973 -1.128539,-0.95144 -1.128539,0.78264 0,0.98078 0.1482785,1.78322 0.3296711,1.78322 z m 2.2664737,8.6733 c 1.4278811,1.34036 2.5961754,2.60108 2.5961754,2.80163 0,0.20059 -1.1682943,1.50914 -2.5961754,2.90803 -3.1013223,3.03831 -3.2225567,4.25798 -0.6717167,6.75702 l 1.9244384,1.88535 2.4118044,-2.50065 c 2.19237,-2.27311 2.329345,-2.58143 1.505402,-3.38864 -0.823974,-0.80722 -1.040643,-0.7293 -2.3814548,0.8563 -1.2891308,1.52446 -1.5805361,1.64093 -2.3123089,0.92402 -0.7317626,-0.71689 -0.5323746,-1.13899 1.582148,-3.34917 l 2.4194147,-2.5289 1.655364,1.73609 1.655394,1.7361 1.708616,-1.79196 1.708646,-1.79196 2.64649,2.59274 c 2.401602,2.35284 2.562918,2.67459 1.743331,3.47753 -0.819567,0.80293 -1.061515,0.7187 -2.614773,-0.9103 -1.553278,-1.62899 -1.795226,-1.71322 -2.614783,-0.9103 -0.819587,0.80293 -0.665493,1.11764 1.665423,3.40122 l 2.56858,2.51641 1.786545,-1.9234 c 1.993442,-2.14616 2.303424,-4.32881 0.776915,-5.47067 -0.555287,-0.41536 -1.761949,-1.56394 -2.681491,-2.55237 l -1.671849,-1.79712 2.68149,-2.35121 c 3.223383,-2.82642 3.437267,-4.47482 0.930916,-7.17424 l -1.716726,-1.84899 -2.621485,2.56823 c -2.378904,2.3306 -2.537905,2.65012 -1.718318,3.45303 0.819557,0.80293 1.061505,0.7187 2.614783,-0.91028 1.556165,-1.63206 1.793992,-1.71442 2.618395,-0.90675 0.824402,0.80766 0.663065,1.12038 -1.776283,3.44298 l -2.683041,2.55465 -1.675685,-1.75742 -1.675696,-1.75741 -1.655394,1.73609 -1.655364,1.7361 -2.4194147,-2.52891 c -2.1375882,-2.23429 -2.3198377,-2.62646 -1.5644076,-3.36657 0.7554402,-0.74009 1.0283298,-0.63591 2.3426483,0.89432 1.343535,1.56428 1.57417,1.64718 2.381669,0.85609 0.807508,-0.79111 0.654088,-1.11158 -1.584311,-3.30912 l -2.4783994,-2.43315 -1.8361751,1.71305 c -2.560358,2.38863 -2.4167313,3.80496 0.6806634,6.71251 z m 6.9642971,1.82335 c 0.719633,-0.96416 0.8248,-0.96831 1.742811,-0.069 0.888162,0.87012 0.894548,1.03788 0.07039,1.8453 -0.791809,0.77574 -1.012477,0.78446 -1.742832,0.069 -0.700464,-0.68626 -0.71189,-0.98578 -0.07039,-1.8453 z m -9.2476441,2.50304 c 1.0514363,0 1.7827704,-1.41895 1.0841014,-2.10344 -1.0762768,-1.0544 -1.3968992,-0.89595 -1.3968992,0.69042 0,0.77718 0.140862,1.41302 0.3127978,1.41302 z m 0.017445,12.99971 c 0.9664783,0 1.8681363,-1.57719 1.2486207,-2.18413 -1.0392047,-1.01809 -1.5782919,-0.75471 -1.5782919,0.77111 0,0.77715 0.1482684,1.41302 0.3296712,1.41302 z m 1.2568635,7.83964 c 4.1112376,3.91476 4.0758286,3.70024 1.0872842,6.58666 -3.1676829,3.05943 -3.3166347,4.30894 -0.8126807,6.81783 l 1.8611687,1.86484 2.4724924,-2.52803 c 3.136619,-3.20706 2.433829,-5.42833 -0.76706,-2.42433 -1.6182097,1.51867 -1.8561695,1.58865 -2.5634179,0.75378 -0.6798064,-0.80249 -0.4655753,-1.21305 1.6733799,-3.20691 l 2.452977,-2.2866 1.685815,1.58229 1.685806,1.58228 1.647763,-1.6892 1.647754,-1.68919 2.654018,2.58304 c 3.316318,3.22761 2.559379,5.46971 -0.788401,2.33537 -3.332019,-3.11957 -4.183026,-0.76444 -0.889672,2.46204 l 2.574783,2.52247 1.780353,-1.66684 c 2.560042,-2.39682 2.357032,-4.07729 -0.857027,-7.09425 -2.199684,-2.06476 -2.51084,-2.60314 -1.874981,-3.24409 5.024648,-5.06497 5.506209,-6.56525 2.894242,-9.01685 -2.041194,-1.91586 -1.877042,-1.94154 -4.725062,0.73925 -2.194543,2.06569 -2.320572,2.33468 -1.479816,3.15837 0.840755,0.82367 1.055557,0.75719 2.522031,-0.78079 1.39798,-1.46616 1.735853,-1.58598 2.641939,-0.9369 0.964132,0.69066 0.846407,0.93289 -1.634696,3.36359 l -2.673645,2.61932 -1.708637,-1.79196 -1.708615,-1.79193 -1.67993,1.76182 -1.679919,1.76184 -2.3585617,-2.35721 c -2.5793328,-2.57788 -2.6697587,-2.77674 -1.696425,-3.73032 0.49822,-0.48808 1.0671363,-0.22391 2.298139,1.06713 1.4839377,1.55628 1.7198677,1.63362 2.5382717,0.83185 0.818383,-0.80178 0.67188,-1.1101 -1.57615,-3.3171 l -2.4783987,-2.43318 -1.8361751,1.71305 c -2.2867542,2.1334 -2.386688,3.91944 -0.3289468,5.87886 z m 7.9641856,3.00952 c 1.368416,-1.18318 3.033074,0.642 1.740495,1.9083 -0.805876,0.7895 -1.002745,0.79398 -1.771987,0.0404 -1.04099,-1.01985 -1.04097,-1.02139 0.03142,-1.94867 z m -8.4221812,1.89037 c 0.9613775,-0.85237 1.0102018,-1.11649 0.3296711,-1.78321 -1.1847084,-1.16063 -1.4582102,-0.97296 -1.4582102,1.00057 0,1.73408 0.031217,1.75564 1.1285391,0.78264 z m 0,12.99969 c 0.9613775,-0.85237 1.0102018,-1.11649 0.3296711,-1.7832 -1.1847084,-1.16064 -1.4582102,-0.97296 -1.4582102,1.00056 0,1.73408 0.031217,1.75566 1.1285391,0.78264 z M 17.626908,15.542678 20.253882,12.969085 17.868285,10.72357 C 14.954048,7.9804469 15.225764,7.9777553 12.279607,10.77911 l -2.4200063,2.301164 2.5701723,2.517945 2.570182,2.517966 z m -3.460863,-3.563106 c 1.368416,-1.183179 3.033074,0.641994 1.740495,1.908294 -0.805876,0.789499 -1.002745,0.793986 -1.771987,0.04038 -1.04099,-1.019846 -1.04097,-1.021384 0.03142,-1.948669 z m 3.352401,29.668754 2.518521,-2.467339 -2.536139,-2.34769 -2.53616,-2.347689 -2.451182,2.396374 -2.451212,2.396352 2.46885,2.418676 2.468831,2.418676 z m -3.44093,-3.168057 c 0.78936,-0.641802 2.653202,-0.283474 2.653202,0.510083 0,1.164852 -1.705933,1.809452 -2.564,0.968812 -0.720919,-0.706272 -0.735813,-0.953153 -0.08916,-1.478895 z m 1.559348,30.964213 c 0.274613,-0.424678 0.50328,-0.576777 0.508136,-0.33797 0.0041,0.238807 0.90988,-0.474793 2.01114,-1.585769 l 2.002317,-2.019953 -2.578354,-2.525978 -2.578353,-2.525977 -2.533151,2.416133 -2.5331503,2.416134 2.6010213,2.467766 c 2.006958,1.904107 2.715114,2.291401 3.100394,1.695614 z M 14.208697,64.50457 c 1.438409,-1.247159 3.099476,0.574191 1.739098,1.906948 -0.8425,0.825366 -1.043949,0.834338 -1.813191,0.08075 -1.045204,-1.023969 -1.045459,-1.016962 0.07416,-1.987675 z m -1.804867,29.63169 2.596176,2.54343 2.611314,-2.558298 2.611345,-2.558298 -2.610468,-2.557423 -2.610447,-2.557444 -2.555227,2.416134 c -1.405366,1.328869 -2.5740276,2.486416 -2.597032,2.572312 -0.023157,0.08587 1.126468,1.300715 2.554339,2.699587 z m 1.762266,-3.59329 c 1.368416,-1.18318 3.033074,0.641994 1.740495,1.908315 -0.805876,0.789478 -1.002745,0.793964 -1.771987,0.04038 -1.04099,-1.019868 -1.04097,-1.021406 0.03142,-1.94869 z m 3.357879,29.66339 2.523969,-2.4727 -2.278878,-2.3464 c -2.758747,-2.84046 -2.301669,-2.83783 -5.358513,-0.031 l -2.5216638,2.31548 2.5555428,2.50363 2.555574,2.50363 z m -3.357879,-3.66401 c 1.368416,-1.18316 3.033074,0.64199 1.740495,1.90831 -0.805876,0.78949 -1.002745,0.79398 -1.771987,0.0404 -1.04099,-1.01984 -1.04097,-1.02138 0.03142,-1.94868 z m 3.346565,29.73963 2.524357,-2.33678 -2.517644,-2.46648 -2.517624,-2.4665 -2.509759,2.41613 -2.5097583,2.41613 2.5030463,2.38713 2.503036,2.38714 z m -3.310656,-3.17503 c 0.675522,-0.60976 0.981556,-0.57639 1.766489,0.19269 0.803387,0.78707 0.824096,1.00782 0.134751,1.43539 -1.653732,1.02557 -3.289325,-0.37498 -1.901179,-1.62799 z m -1.074706,30.23312 1.877307,1.89847 2.60903,-2.55603 2.609029,-2.55601 -2.610468,-2.55745 -2.610447,-2.55744 -2.512982,2.41613 c -2.7512688,2.64526 -2.7707639,2.46462 0.638531,5.91233 z m 1.038797,-4.23373 c 1.368416,-1.18315 3.033074,0.642 1.740495,1.90833 -0.805876,0.78949 -1.002745,0.79398 -1.771987,0.0404 -1.04099,-1.01984 -1.04097,-1.02138 0.03142,-1.94869 z M 24.519234,14.130112 c 0.738995,0.600851 0.865371,0.435744 0.865371,-1.130415 0,-1.56616 -0.126468,-1.731267 -0.865371,-1.130416 -0.475961,0.386994 -0.865402,0.895689 -0.865402,1.130416 0,0.234747 0.389441,0.743421 0.865402,1.130415 z m -0.515206,12.67086 c 0.581118,1.483595 1.380577,1.006494 1.380577,-0.823849 0,-1.462702 -0.125376,-1.609631 -0.843438,-0.989106 -1.01162,0.874114 -0.965652,0.71894 -0.537139,1.812955 z m 0.515206,13.328533 c 0.731365,0.594656 0.865371,0.476823 0.865371,-0.760852 0,-1.069556 -0.233359,-1.376742 -0.865371,-1.139153 -0.475961,0.179014 -0.865402,0.52132 -0.865402,0.760852 0,0.239554 0.389441,0.752158 0.865402,1.139153 z m 0,12.999707 c 0.733476,0.596365 0.865371,0.467145 0.865371,-0.847817 0,-1.314963 -0.131915,-1.444181 -0.865371,-0.847795 -0.475961,0.386973 -0.865402,0.768499 -0.865402,0.847795 0,0.07925 0.389441,0.460822 0.865402,0.847817 z m 0,13.363033 c 0.769232,0.753611 0.865371,0.654918 0.865371,-0.888169 0,-2.197537 -1.145606,-2.293602 -1.685213,-0.141204 -0.0251,0.09997 0.343881,0.563189 0.819842,1.02948 z m 0,12.999707 c 0.769232,0.753611 0.865371,0.647228 0.865371,-0.957383 0,-1.540524 -0.126906,-1.702043 -0.865371,-1.101577 -0.475961,0.386995 -0.865402,0.817803 -0.865402,0.957383 0,0.139495 0.389441,0.635286 0.865402,1.101577 z m 0,12.999708 c 0.769232,0.753589 0.865371,0.65244 0.865371,-0.910473 0,-1.498099 -0.124723,-1.650432 -0.843438,-1.02948 -1.061903,0.917565 -1.061944,0.921068 -0.02204,1.939953 z m 0,13.20153 c 0.73821,0.6002 0.865371,0.44096 0.865371,-1.08349 0,-1.52338 -0.124499,-1.67954 -0.843438,-1.05831 -1.080041,0.93325 -1.083571,1.27861 -0.02204,2.1418 z m 0,12.99969 c 0.73821,0.60021 0.865371,0.44098 0.865371,-1.08348 0,-1.52339 -0.124499,-1.67957 -0.843438,-1.05832 -1.080041,0.93324 -1.083571,1.2786 -0.02204,2.1418 z m 0.767774,12.47924 c 0.237562,-1.58365 -0.370294,-2.26248 -1.054599,-1.17773 -0.320204,0.50757 -0.254313,1.11974 0.175527,1.63121 0.580301,0.6904 0.718062,0.61933 0.87901,-0.45348 z m -0.767774,13.72457 c 0.632012,0.23759 0.865371,-0.0697 0.865371,-1.13915 0,-1.23768 -0.134098,-1.35551 -0.865371,-0.76085 -0.475961,0.38696 -0.865402,0.89959 -0.865402,1.13913 0,0.23955 0.389441,0.58192 0.865402,0.76087 z m 0,13.36051 c 0.737812,0.59989 0.865371,0.44344 0.865371,-1.0612 0,-1.76414 -0.799541,-2.39154 -1.348677,-1.05832 -0.47546,1.15439 -0.423504,1.38221 0.483306,2.11952 z m 0,12.79783 c 0.769232,0.75362 0.865371,0.64723 0.865371,-0.95738 0,-1.54052 -0.126906,-1.70204 -0.865371,-1.10157 -0.475961,0.38699 -0.865402,0.8178 -0.865402,0.95738 0,0.1395 0.389441,0.63528 0.865402,1.10157 z M 15.000006,0 c 1.648345,0 1.730763,0.08074856 0.906585,0.88819148 -0.824188,0.80742162 -0.989013,0.80742162 -1.813201,0 C 13.269232,0.08074856 13.35163,0 15.000006,0 Z m -0.83391,182.10608 c 0.705891,-0.61034 1.007671,-0.58598 1.750044,0.1412 0.811446,0.79497 0.727957,0.87881 -0.874951,0.87881 -2.017486,0 -2.033421,-0.0192 -0.875093,-1.02012 z M 28.846152,0 c 1.149095,0 1.153849,0.37680527 1.153849,91.563094 0,91.186296 -0.0041,91.563106 -1.153849,91.563106 -1.149085,0 -1.153839,-0.37681 -1.153839,-91.563106 C 27.692313,0.37680527 27.696394,0 28.846152,0 Z"
       id="path1-2-8-2" /></g></svg>
